HIERARCHY
ROOT Hips
{
	OFFSET 0.000000 0.000000 0.000000 
	CHANNELS 6 Xposition Yposition Zposition Zrotation Yrotation Xrotation
	JOINT LeftUpLeg
	{
		OFFSET 1.363060 -1.794630 0.839290 
		CHANNELS 3 Zrotation Yrotation Xrotation
		JOINT LeftLeg
		{
			OFFSET 2.448110 -6.726130 0.000000 
			CHANNELS 3 Zrotation Yrotation Xrotation
			JOINT LeftFoot
			{
				OFFSET 2.562200 -7.039590 0.000000 
				CHANNELS 3 Zrotation Yrotation Xrotation
				JOINT LeftToeBase
				{
					OFFSET 0.157640 -0.433110 2.322550 
					CHANNELS 3 Zrotation Yrotation Xrotation
					End Site
					{
						OFFSET 0.000000 0.000000 0.000000 
					}
				}
			}
		}
	}
	JOINT RightUpLeg
	{
		OFFSET -1.305520 -1.794630 0.839290 
		CHANNELS 3 Zrotation Yrotation Xrotation
		JOINT RightLeg
		{
			OFFSET -2.542530 -6.985550 0.000000 
			CHANNELS 3 Zrotation Yrotation Xrotation
			JOINT RightFoot
			{
				OFFSET -2.568260 -7.056230 0.000000 
				CHANNELS 3 Zrotation Yrotation Xrotation
				JOINT RightToeBase
				{
					OFFSET -0.164730 -0.452590 2.363150 
					CHANNELS 3 Zrotation Yrotation Xrotation
					End Site
					{
						OFFSET 0.000000 0.000000 0.000000 
					}
				}
			}
		}
	}
	JOINT Spine
	{
		OFFSET 0.028270 2.035590 -0.193380 
		CHANNELS 3 Zrotation Yrotation Xrotation
		JOINT Spine1
		{
			OFFSET 0.056720 2.048850 -0.042750 
			CHANNELS 3 Zrotation Yrotation Xrotation
			JOINT Neck1
			{
				OFFSET -0.054170 1.746240 0.172020 
				CHANNELS 3 Zrotation Yrotation Xrotation
				JOINT Head
				{
					OFFSET 0.104070 1.761360 -0.123970 
					CHANNELS 3 Zrotation Yrotation Xrotation
					End Site
					{
						OFFSET 0.000000 0.000000 0.000000 
					}
				}
			}
			JOINT LeftArm
			{
				OFFSET 3.362410 1.200890 -0.311210 
				CHANNELS 3 Zrotation Yrotation Xrotation
				JOINT LeftForeArm
				{
					OFFSET 4.983000 -0.000000 -0.000000 
					CHANNELS 3 Zrotation Yrotation Xrotation
					JOINT LeftHand
					{
						OFFSET 3.483560 -0.000000 -0.000000 
						CHANNELS 3 Zrotation Yrotation Xrotation
						JOINT LeftHandIndex1
						{
							OFFSET 0.715260 -0.000000 -0.000000 
							CHANNELS 3 Zrotation Yrotation Xrotation
							End Site
							{
								OFFSET 0.000000 0.000000 0.000000 
							}
						}
					}
				}
			}
			JOINT RightArm
			{
				OFFSET -3.136600 1.374050 -0.404650 
				CHANNELS 3 Zrotation Yrotation Xrotation
				JOINT RightForeArm
				{
					OFFSET -5.241900 -0.000000 -0.000000 
					CHANNELS 3 Zrotation Yrotation Xrotation
					JOINT RightHand
					{
						OFFSET -3.444170 -0.000000 -0.000000 
						CHANNELS 3 Zrotation Yrotation Xrotation
						JOINT RightHandIndex1
						{
							OFFSET -0.622530 -0.000000 -0.000000 
							CHANNELS 3 Zrotation Yrotation Xrotation
							End Site
							{
								OFFSET 0.000000 0.000000 0.000000 
							}
						}
					}
				}
			}
		}
	}
}
MOTION
Frames: 13
Frame Time: 0.041667
7.769739 17.321491 -46.681681 -1.046030 -3.704661 6.549026 -13.119290 2.692182 -31.253253 5.728215 17.476104 49.505795 -1.369766 6.276927 8.123659 0.739700 -5.494400 -15.324100 18.950685 4.444430 -14.901212 1.794015 -9.198864 26.607709 -6.355348 15.430006 9.539739 -0.000100 -0.074700 0.205100 1.302194 4.663892 -3.617347 -2.288158 2.438637 -1.725608 2.846579 -1.776561 10.675609 -0.501800 -0.779100 4.597100 -90.029452 8.293592 29.490345 8.616265 -14.835414 -1.895935 -1.016850 0.978222 -9.109500 -7.125000 0.000000 0.000000 86.757714 6.602513 13.560791 -12.600435 22.077358 -5.139948 2.648046 1.226596 -2.677262 7.125000 0.000000 0.000000 
7.783268 17.336034 -46.426898 -1.265016 -4.164881 6.695557 -12.808369 3.093491 -31.905988 4.854177 16.927814 46.872396 -1.291608 6.180836 7.682951 0.937000 -6.165700 -17.266100 19.124835 3.424058 -14.461509 1.869229 -8.949313 26.173513 -6.571221 16.554242 10.013614 -0.030600 1.129200 -3.104500 1.279620 4.814431 -3.554477 -2.478019 2.545454 -1.357750 2.844846 -1.700400 10.567248 -0.511300 -0.738600 4.492500 -90.218141 9.200362 28.158784 8.088468 -14.236869 -1.727539 -0.939693 0.964387 -7.733720 -7.125000 0.000000 0.000000 86.193329 7.952833 15.596205 -13.631956 23.231828 -5.630978 2.627504 1.446194 -4.496435 7.125000 0.000000 0.000000 
7.798600 17.343925 -46.173694 -1.471716 -4.530633 6.799645 -12.578459 3.479246 -32.577551 4.019790 16.339334 44.224956 -1.447281 6.776725 7.116313 0.710700 -5.387900 -15.018300 19.248059 2.829332 -13.940009 1.895507 -8.790029 25.977516 -6.646949 17.154191 10.404648 -0.050800 1.454700 -4.000900 1.189586 5.057912 -3.566474 -3.053862 2.681235 -1.394306 2.945829 -1.703356 10.292940 -0.548700 -0.724300 4.806500 -89.967262 10.406006 27.685774 7.844102 -13.963644 -1.603083 -0.971920 0.780031 -6.850072 -7.125000 0.000000 0.000000 85.509077 9.453879 17.383161 -14.753921 24.616996 -6.460541 2.508578 1.966937 -3.848271 7.125000 0.000000 0.000000 
7.812917 17.317207 -45.928382 -1.770163 -5.056906 6.917693 -12.220788 3.906992 -33.027662 3.191738 15.674717 41.563232 -1.408156 6.809611 6.615761 0.408300 -4.101800 -11.363300 19.430096 2.499217 -13.373790 1.977385 -8.593363 25.699629 -6.675924 17.902551 11.368627 -0.001300 0.235700 -0.647500 1.117045 5.424663 -3.567558 -3.465090 2.881695 -1.386458 2.862069 -1.763923 10.287738 -0.698400 -0.738100 4.851100 -89.705850 11.547325 27.920622 7.886152 -14.077534 -1.599431 -1.107016 0.618720 -6.653552 -7.125000 0.000000 0.000000 84.216270 11.447580 20.615204 -14.852758 24.720877 -6.575643 2.498201 2.193936 -6.741855 7.125000 0.000000 0.000000 
7.826107 17.290376 -45.683633 -2.117320 -5.803543 6.955654 -11.739969 4.378949 -33.148526 2.393995 14.929227 38.818919 -1.390963 6.970609 6.812844 0.754500 -5.547900 -15.478200 19.631874 1.983702 -12.769115 2.022950 -8.409520 25.419067 -6.802132 19.056278 11.772766 -0.000500 0.141100 -0.387600 1.111797 5.721253 -3.526570 -3.570168 3.057036 -1.293371 2.421458 -1.899600 10.469824 -0.971800 -0.808600 4.458400 -89.898525 12.557009 27.631093 7.811446 -14.058808 -1.598904 -1.102138 0.673941 -6.532077 -7.125000 0.000000 0.000000 82.920741 13.725982 22.955098 -14.791852 24.504838 -6.542395 2.511229 2.339631 -8.727455 7.125000 0.000000 0.000000 
7.838508 17.289812 -45.435276 -2.318364 -6.393761 7.058563 -11.272085 4.593489 -33.264795 1.642620 14.146666 35.903702 -2.103623 9.035873 6.739305 2.864500 -10.472400 -30.520600 19.642151 1.370056 -12.148031 2.063693 -8.180780 24.993801 -6.941153 19.961555 11.785535 -0.011000 0.677900 -1.862800 1.146602 5.779376 -3.494027 -3.545221 3.120992 -1.412535 2.039871 -1.736136 9.550281 -1.367800 -0.744100 4.061900 -90.550531 13.615112 25.529390 7.275780 -13.502923 -1.622443 -1.054760 1.147723 -5.466170 -7.125000 0.000000 0.000000 82.384840 15.037983 24.030901 -15.784940 25.247070 -6.719429 2.536712 2.204509 -9.134781 7.125000 0.000000 0.000000 
7.853276 17.302889 -45.181621 -2.317389 -6.879588 7.221412 -10.836462 4.485066 -33.397089 0.760800 13.252001 32.873607 -1.666117 8.104441 6.975821 1.107400 -6.686200 -18.788800 19.372494 0.741846 -11.525727 2.159069 -7.849886 24.386130 -7.056630 20.947026 12.457658 -0.001400 0.241600 -0.663800 1.134889 5.811557 -3.505309 -3.441977 3.171997 -1.259093 2.557569 -1.268877 9.969163 -0.805400 -0.526400 4.584600 -91.083990 14.532653 23.395077 6.721806 -12.757369 -1.360954 -0.977190 0.878028 -3.753530 -7.125000 0.000000 0.000000 82.764610 15.339108 23.530161 -17.884142 27.109750 -7.372912 2.539109 1.877563 -8.107232 7.125000 0.000000 0.000000 
7.869736 17.314839 -44.926500 -2.461214 -7.456660 7.307023 -10.260783 4.533991 -33.413719 -0.025236 12.264205 29.644514 -1.819263 8.785122 7.810651 0.632000 -5.086500 -14.155500 19.216869 0.008986 -10.866276 2.271423 -7.480156 23.686378 -7.126193 21.963855 13.267001 -0.000100 0.055000 -0.151200 1.113134 6.023458 -3.499129 -3.435032 3.312711 -1.207186 2.722832 -1.150797 10.076990 -0.614000 -0.476500 4.784900 -91.398061 15.240150 21.457621 6.197629 -12.100177 -1.242087 -1.091380 0.826007 -2.216532 -7.125000 0.000000 0.000000 81.807941 16.949443 24.855851 -17.751744 26.602696 -6.931356 2.618279 1.526048 -9.123712 7.125000 0.000000 0.000000 
7.884504 17.316418 -44.674085 -2.544165 -8.100298 7.384468 -9.574969 4.379685 -33.261149 -0.755348 11.225206 26.421167 -1.846594 9.168315 8.705694 0.365000 -3.880900 -10.741800 18.955845 -0.565973 -10.144982 2.424235 -7.049592 22.854000 -7.116497 22.556103 14.442355 0.000000 0.010200 -0.028100 1.081951 6.302937 -3.496293 -3.508056 3.481777 -1.361847 2.625199 -1.209995 9.866338 -0.700300 -0.506400 4.534100 -91.644268 16.047695 19.344060 5.666176 -11.475955 -1.206732 -1.421531 0.822357 -0.528657 -7.125000 0.000000 0.000000 80.951308 18.371801 26.054671 -18.203703 26.904931 -7.141202 2.665193 1.571730 -9.953921 7.125000 0.000000 0.000000 
7.900400 17.313374 -44.418964 -2.582618 -8.736469 7.546021 -8.808497 3.880371 -33.030674 -1.392113 10.214772 23.371381 -1.914701 9.551028 8.971880 0.335500 -3.722300 -10.296700 18.616041 -0.173436 -9.033226 2.589890 -6.622880 21.951907 -7.075251 22.400537 15.083351 -0.000100 0.052700 -0.144700 1.043541 6.577444 -3.495898 -3.578617 3.654617 -1.416895 2.607511 -1.079424 9.630735 -0.737000 -0.439300 4.286600 -91.879591 17.080528 17.935800 5.383996 -11.230391 -1.307323 -2.048566 0.549678 0.324473 -7.125000 0.000000 0.000000 80.177484 19.636297 27.080828 -18.844832 27.400656 -7.443263 2.673920 1.665639 -10.961343 7.125000 0.000000 0.000000 
7.920241 17.305708 -44.161138 -2.879671 -9.242398 7.785474 -7.797430 3.211678 -32.773428 -1.870958 9.243148 20.399901 -2.569740 11.325734 9.400070 0.789700 -5.672800 -15.837800 18.584040 0.581839 -7.829836 2.699473 -6.309090 21.228194 -7.045949 22.153515 14.848076 -0.008800 0.606400 -1.666400 1.047345 6.741003 -3.489911 -3.588326 3.771473 -1.318348 2.663005 -0.733908 9.422023 -0.662800 -0.274800 4.147200 -92.289110 17.962250 16.163150 5.129422 -10.908858 -1.246532 -1.951607 0.703064 1.570231 -7.125000 0.000000 0.000000 79.416791 20.938737 28.079953 -19.596940 27.824854 -7.539548 2.655566 1.472813 -11.450951 7.125000 0.000000 0.000000 
7.941323 17.288347 -43.903988 -3.206746 -9.654875 8.081692 -6.460167 2.025633 -32.309420 -2.273837 8.284968 17.546827 -3.073879 12.627543 9.479984 0.817100 -5.768000 -16.112700 18.547182 0.359875 -7.153265 2.842008 -5.929187 20.477892 -6.981222 22.650358 15.990212 -0.007200 0.549200 -1.509100 1.069317 6.853589 -3.464300 -3.682666 3.855510 -1.293807 2.221753 -0.678283 8.803129 -1.035500 -0.256300 3.525000 -92.733549 18.328318 11.444216 4.397709 -9.868070 -1.037255 -1.218404 1.278029 5.413481 -7.125000 0.000000 0.000000 78.767673 22.237974 29.102051 -20.299567 28.090505 -7.448833 2.567057 1.032138 -10.983328 7.125000 0.000000 0.000000 
7.962743 17.257006 -43.644809 -3.303597 -10.240621 8.287146 -5.161499 0.471667 -31.652781 -2.609963 7.407850 15.022847 -3.474828 13.395312 8.370604 0.590200 -4.918700 -13.676900 18.169864 -0.114267 -6.585465 3.008590 -5.484265 19.688152 -6.888714 23.309467 18.087590 -0.000100 -0.060500 0.166100 1.038002 7.096045 -3.463674 -3.627461 4.005318 -0.971463 2.745024 -0.464732 9.377807 -0.520500 -0.156100 4.245900 -93.102109 18.172761 4.862073 3.472200 -8.489674 -0.914242 -0.497272 1.706322 11.169071 -7.125000 0.000000 0.000000 77.922572 23.769275 29.659565 -20.674328 28.281822 -7.674238 2.626542 1.145936 -10.928976 7.125000 0.000000 0.000000 
